<svg version="1.1" xmlns="http://www.w3.org/2000/svg" xmlns:xlink="http://www.w3.org/1999/xlink" role="img" width="268" height="90" viewbox="0 0 268 90"><title>overhaul</title><desc>Generated by logo.svg, https://github.com/bubkoo/logo.svg</desc><path fill="#2b68a7" d="M16.04 70.99Q10.60 70.99 7.18 67.70Q3.75 64.40 3.75 57.74Q3.75 54.22 4.90 50.32Q6.06 46.42 8.42 43.02Q10.79 39.63 14.38 37.52Q17.96 35.41 22.82 35.41Q26.22 35.41 28.97 36.75Q31.72 38.10 33.35 41.04Q34.98 43.98 34.98 48.66Q34.98 51.41 34.28 54.45Q33.58 57.49 32.10 60.43Q30.63 63.38 28.39 65.74Q26.15 68.11 23.05 69.55Q19.94 70.99 16.04 70.99M16.74 67.73Q19.88 67.73 22.09 65.71Q24.30 63.70 25.67 60.53Q27.05 57.36 27.69 53.90Q28.33 50.45 28.33 47.57Q28.33 42.77 26.66 40.72Q25 38.67 22.06 38.67Q19.56 38.67 17.64 40.02Q15.72 41.36 14.34 43.57Q12.97 45.78 12.10 48.46Q11.24 51.15 10.82 53.87Q10.41 56.59 10.41 58.90Q10.41 63.76 12.14 65.74Q13.86 67.73 16.74 67.73ZM48.36 70.93L43.88 42.13Q43.56 40.14 42.44 39.44Q41.32 38.74 39.46 38.74L38.82 38.74L39.34 36.05L48.94 36.05L51.88 54.99Q52.20 57.17 52.49 59.38Q52.78 61.58 53.00 63.41Q53.22 65.23 53.35 66.32L53.54 66.32Q55.85 64.08 57.99 61.33Q60.14 58.58 61.77 55.73Q63.40 52.88 64.36 50.26Q65.32 47.63 65.32 45.71Q65.32 43.47 64.23 42.16Q63.14 40.85 61.35 40.85Q61.35 38.22 62.76 36.98Q64.17 35.73 65.70 35.73Q67.69 35.73 68.87 37.10Q70.06 38.48 70.06 41.68Q70.06 45.46 68.42 49.55Q66.79 53.65 64.26 57.58Q61.74 61.52 59.02 64.82Q56.30 68.11 54.12 70.29L48.36 70.93ZM87.40 70.99Q83.94 70.99 81.13 69.52Q78.31 68.05 76.62 65.14Q74.92 62.22 74.92 57.74Q74.92 54.22 76.14 50.32Q77.35 46.42 79.78 43.02Q82.22 39.63 85.77 37.52Q89.32 35.41 93.99 35.41Q98.02 35.41 100.26 37.36Q102.50 39.31 102.50 42.77Q102.50 46.16 100.10 49.07Q97.70 51.98 93.51 53.78Q89.32 55.57 83.94 55.57L81.70 55.57Q81.64 56.27 81.61 56.94Q81.58 57.62 81.58 58.26Q81.58 62.42 83.37 64.69Q85.16 66.96 88.62 66.96Q91.69 66.96 94.09 65.49Q96.49 64.02 97.83 62.35Q98.47 62.80 98.47 63.95Q98.47 65.36 97.29 66.99Q96.10 68.62 93.67 69.81Q91.24 70.99 87.40 70.99M82.28 52.62L82.92 52.62Q86.63 52.62 89.58 51.38Q92.52 50.13 94.22 47.92Q95.91 45.71 95.91 42.77Q95.91 38.48 92.20 38.48Q90.34 38.48 88.78 39.73Q87.21 40.98 85.93 43.06Q84.65 45.14 83.72 47.63Q82.79 50.13 82.28 52.62ZM106.54 70.35L111.91 44.62Q112.10 43.73 112.20 42.90Q112.30 42.06 112.30 41.74Q112.30 39.82 110.63 39.28Q108.97 38.74 107.18 38.74L106.66 38.74L107.24 36.05L118.57 36.05L117.22 45.26L117.86 45.26Q119.08 42.64 120.49 40.40Q121.90 38.16 123.88 36.78Q125.86 35.41 128.74 35.41Q131.43 35.41 132.71 36.66Q133.99 37.90 133.99 39.82Q133.99 42.06 132.74 43.38Q131.50 44.69 128.68 44.69Q128.68 42.38 128.17 41.01Q127.66 39.63 126.12 39.63Q124.46 39.63 122.76 41.36Q121.06 43.09 119.56 45.94Q118.06 48.78 116.84 52.14Q115.62 55.50 114.92 58.70L112.49 70.35L106.54 70.35ZM163.11 70.99Q160.30 70.99 158.79 69.20Q157.29 67.41 157.29 64.59Q157.29 61.65 158.50 55.95L159.59 50.96Q159.78 50.13 160.10 48.75Q160.42 47.38 160.68 45.94Q160.94 44.50 160.94 43.34Q160.94 42.06 160.39 40.82Q159.85 39.57 157.99 39.57Q155.94 39.57 153.99 41.04Q152.04 42.51 150.34 44.82Q148.65 47.12 147.46 49.58Q146.28 52.05 145.90 53.97L142.44 70.35L136.49 70.35L144.81 30.80Q145.06 29.52 145.22 28.62Q145.38 27.73 145.38 27.41Q145.38 25.49 144.07 24.94Q142.76 24.40 140.90 24.40L140.39 24.40L140.97 21.71L152.74 21.71L150.25 33.49Q149.54 36.88 148.78 39.89Q148.01 42.90 147.69 44.11L148.39 44.11Q150.95 39.89 153.80 37.68Q156.65 35.47 160.23 35.47Q164.01 35.47 165.54 37.62Q167.08 39.76 167.08 42.58Q167.08 44.18 166.66 46.06Q166.25 47.95 165.93 49.62L164.26 57.17Q163.88 58.96 163.66 60.69Q163.43 62.42 163.43 63.89Q163.43 66.96 165.67 66.96Q167.53 66.96 169.77 65.49L170.92 67.34Q169.38 68.62 167.50 69.81Q165.61 70.99 163.11 70.99ZM183.02 70.99Q180.20 70.99 178.34 69.46Q176.49 67.92 175.62 65.26Q174.76 62.61 174.76 59.28Q174.76 56.27 175.56 52.98Q176.36 49.68 177.96 46.58Q179.56 43.47 181.86 40.94Q184.17 38.42 187.18 36.91Q190.18 35.41 193.83 35.41Q196.14 35.41 198.09 36.05Q200.04 36.69 201.32 37.71L204.14 36.11L206.18 36.11L201.83 56.59Q201.70 57.30 201.45 58.64Q201.19 59.98 201.03 61.39Q200.87 62.80 200.87 63.70Q200.87 66.96 202.98 66.96Q204.01 66.96 205.19 66.48Q206.38 66 207.59 65.30L208.74 67.15Q207.85 67.98 206.31 68.88Q204.78 69.78 203.05 70.38Q201.32 70.99 199.72 70.99Q197.42 70.99 196.07 69.58Q194.73 68.18 194.73 65.68Q194.73 64.40 194.89 63.34Q195.05 62.29 195.37 60.69L194.98 60.69Q192.74 65.62 189.77 68.30Q186.79 70.99 183.02 70.99M185.32 66.96Q186.98 66.96 188.74 65.68Q190.50 64.40 192.07 62.22Q193.64 60.05 194.86 57.36Q196.07 54.67 196.65 51.92L199.02 40.59Q198.31 39.44 196.97 38.86Q195.62 38.29 194.15 38.29Q191.59 38.29 189.54 39.73Q187.50 41.17 185.96 43.54Q184.42 45.90 183.37 48.72Q182.31 51.54 181.80 54.38Q181.29 57.23 181.29 59.54Q181.29 63.50 182.44 65.23Q183.59 66.96 185.32 66.96ZM238.25 70.99Q235.69 70.99 234.28 69.20Q232.87 67.41 232.87 64.91Q232.87 64.21 232.97 63.18Q233.06 62.16 233.19 61.14L232.68 61.14Q230.89 64.08 229.16 66.26Q227.43 68.43 225.32 69.68Q223.21 70.93 220.33 70.93Q216.55 70.93 215.02 68.78Q213.48 66.64 213.48 63.82Q213.48 62.22 213.86 60.34Q214.25 58.45 214.63 56.78L217.13 45.58Q217.32 44.69 217.51 43.38Q217.70 42.06 217.70 41.74Q217.70 39.82 216.39 39.28Q215.08 38.74 213.22 38.74L212.71 38.74L213.29 36.05L225.19 36.05L220.97 55.18Q220.58 56.91 220.14 59.22Q219.69 61.52 219.69 62.93Q219.69 64.53 220.33 65.68Q220.97 66.83 222.82 66.83Q224.55 66.83 226.41 65.52Q228.26 64.21 229.99 62.03Q231.72 59.86 233.00 57.23Q234.28 54.61 234.86 51.98L238.18 36.05L244.39 36.05L239.98 56.59Q239.78 57.30 239.56 58.64Q239.34 59.98 239.18 61.39Q239.02 62.80 239.02 63.70Q239.02 66.96 241.13 66.96Q242.22 66.96 243.11 66.61Q244.01 66.26 245.22 65.55L246.38 67.41Q244.97 68.69 242.82 69.84Q240.68 70.99 238.25 70.99ZM257.38 70.99Q254.82 70.99 253.45 69.20Q252.07 67.41 252.07 64.91Q252.07 63.57 252.33 61.71Q252.58 59.86 252.90 58Q253.22 56.14 253.48 54.86L258.73 30.29Q258.92 29.39 259.02 28.56Q259.11 27.73 259.11 27.41Q259.11 25.49 257.80 24.94Q256.49 24.40 254.63 24.40L253.86 24.40L254.44 21.71L266.54 21.71L259.11 56.59Q258.92 57.30 258.70 58.64Q258.47 59.98 258.28 61.39Q258.09 62.80 258.09 63.70Q258.09 66.96 260.20 66.96Q261.22 66.96 262.41 66.48Q263.59 66 264.81 65.30L265.96 67.15Q264.55 68.43 262.18 69.71Q259.82 70.99 257.38 70.99Z"></path></svg>